<?xml version="1.0" encoding="utf-8"?>
<!-- Generator: Adobe Illustrator 18.1.0, SVG Export Plug-In . SVG Version: 6.00 Build 0)  -->
<!DOCTYPE svg PUBLIC "-//W3C//DTD SVG 1.1//EN" "http://www.w3.org/Graphics/SVG/1.1/DTD/svg11.dtd">
<svg version="1.1" id="GDC_Legacy_Archive" xmlns="http://www.w3.org/2000/svg" xmlns:xlink="http://www.w3.org/1999/xlink" x="0px"
	 y="0px" viewBox="0 0 1086.4 190.1" enable-background="new 0 0 1086.4 190.1" xml:space="preserve">
<g>
	<rect x="279.5" y="40.8" fill="none" width="794.8" height="125.2"/>
	<text transform="matrix(1 0 0 1 279.5366 78.0383)"><tspan x="0" y="0" fill="#BF063B" font-family="'Montserrat-Bold'" font-size="50.1396">NATIONAL CANCER INSTITUTE</tspan><tspan x="0" y="74.7" fill="#65666A" font-family="'Montserrat-Bold'" font-size="74.676">GDC Legacy Archive</tspan></text>
	<path fill="#BF063B" d="M204,22.5h-12.4l38.6,71l-40.1,72h12.4c4.7,0,9-2.5,11.3-6.7l36.4-65.4l-34.9-64.2
		C213.1,25.1,208.8,22.5,204,22.5z"/>
	<path fill="#65666A" d="M180.7,23H31c-6,0-10.8,4.8-10.8,10.8v121.4c0,6,4.8,10.8,10.8,10.8h148.2l40.1-72L180.7,23z"/>
	<g>
		<polygon fill="#FFFFFF" points="85.5,107.9 53.8,60.1 44,60.1 44,125.8 54,125.8 54,79.2 84.8,125.7 84.9,125.8 95.6,125.8 
			95.6,60.1 85.5,60.1 		"/>
		<rect x="107.2" y="60.1" fill="#FFFFFF" width="11.3" height="65.6"/>
		<polygon fill="#FFFFFF" points="171,60.1 171,88.3 140.5,88.3 140.5,60.1 129.2,60.1 129.2,125.8 140.5,125.8 140.5,99.2 
			171,99.2 171,125.8 182.3,125.8 182.3,60.1 		"/>
	</g>
</g>
</svg>
